<svg width="16" height="17" viewBox="0 0 16 17" fill="none" xmlns="http://www.w3.org/2000/svg">
<mask id="mask0_781_5676" style="mask-type:alpha" maskUnits="userSpaceOnUse" x="0" y="0" width="16" height="17">
<rect y="0.5" width="16" height="16" fill="#D9D9D9"/>
</mask>
<g mask="url(#mask0_781_5676)">
<path d="M8.00065 15.1668L7.33398 13.1668H2.66732C2.30065 13.1668 1.98676 13.0363 1.72565 12.7752C1.46454 12.5141 1.33398 12.2002 1.33398 11.8335V3.16683C1.33398 2.80016 1.46454 2.48627 1.72565 2.22516C1.98676 1.96405 2.30065 1.8335 2.66732 1.8335H6.66732L7.25065 3.8335H13.334C13.7229 3.8335 14.0423 3.9585 14.2923 4.2085C14.5423 4.4585 14.6673 4.77794 14.6673 5.16683V13.8335C14.6673 14.2002 14.5423 14.5141 14.2923 14.7752C14.0423 15.0363 13.7229 15.1668 13.334 15.1668H8.00065ZM4.76732 10.2335C5.53398 10.2335 6.16454 9.98627 6.65898 9.49183C7.15343 8.99739 7.40065 8.35572 7.40065 7.56683C7.40065 7.47794 7.39787 7.39739 7.39232 7.32516C7.38676 7.25294 7.37287 7.17794 7.35065 7.10016H4.71732V8.1335H6.20065C6.11176 8.44461 5.94232 8.68627 5.69232 8.8585C5.44232 9.03072 5.13954 9.11683 4.78398 9.11683C4.35065 9.11683 3.97843 8.96127 3.66732 8.65016C3.35621 8.33905 3.20065 7.95572 3.20065 7.50016C3.20065 7.04461 3.35621 6.66127 3.66732 6.35016C3.97843 6.03905 4.35065 5.8835 4.78398 5.8835C4.98398 5.8835 5.17287 5.91961 5.35065 5.99183C5.52843 6.06405 5.68954 6.17239 5.83398 6.31683L6.65065 5.5335C6.41732 5.28905 6.13676 5.10016 5.80898 4.96683C5.48121 4.8335 5.13398 4.76683 4.76732 4.76683C4.02287 4.76683 3.38676 5.03072 2.85898 5.5585C2.33121 6.08627 2.06732 6.7335 2.06732 7.50016C2.06732 8.26683 2.33121 8.91405 2.85898 9.44183C3.38676 9.96961 4.02287 10.2335 4.76732 10.2335ZM9.23398 10.5668L9.60065 10.2168C9.4451 10.0279 9.30343 9.84461 9.17565 9.66683C9.04787 9.48905 8.92287 9.30016 8.80065 9.10016L9.23398 10.5668ZM10.0673 9.71683C10.3784 9.35016 10.6145 9.00016 10.7757 8.66683C10.9368 8.3335 11.0451 8.07239 11.1007 7.8835H8.45065L8.65065 8.5835H9.31732C9.40621 8.75016 9.51176 8.93072 9.63398 9.12516C9.75621 9.31961 9.90065 9.51683 10.0673 9.71683ZM8.66732 14.5002H13.334C13.534 14.5002 13.6951 14.4363 13.8173 14.3085C13.9395 14.1807 14.0007 14.0224 14.0007 13.8335V5.16683C14.0007 4.96683 13.9395 4.80572 13.8173 4.6835C13.6951 4.56127 13.534 4.50016 13.334 4.50016H7.45065L8.23398 7.20016H9.55065V6.50016H10.234V7.20016H12.6673V7.8835H11.8173C11.7062 8.30572 11.5395 8.71683 11.3173 9.11683C11.0951 9.51683 10.834 9.88905 10.534 10.2335L12.3507 12.0168L11.8673 12.5002L10.0673 10.7002L9.46732 11.3168L10.0007 13.1668L8.66732 14.5002Z" fill="#6F7174"/>
</g>
</svg>
