<svg width="220" height="27" viewBox="0 0 220 27" fill="none" xmlns="http://www.w3.org/2000/svg">
<path d="M7.268 19.192C6.38267 19.192 5.56133 19.048 4.804 18.76C4.05733 18.472 3.40667 18.0667 2.852 17.544C2.308 17.0213 1.88133 16.408 1.572 15.704C1.27333 15 1.124 14.232 1.124 13.4C1.124 12.568 1.27333 11.8 1.572 11.096C1.88133 10.392 2.31333 9.77867 2.868 9.256C3.42267 8.73333 4.07333 8.328 4.82 8.04C5.56667 7.752 6.37733 7.608 7.252 7.608C8.13733 7.608 8.948 7.752 9.684 8.04C10.4307 8.328 11.076 8.73333 11.62 9.256C12.1747 9.77867 12.6067 10.392 12.916 11.096C13.2253 11.7893 13.38 12.5573 13.38 13.4C13.38 14.232 13.2253 15.0053 12.916 15.72C12.6067 16.424 12.1747 17.0373 11.62 17.56C11.076 18.072 10.4307 18.472 9.684 18.76C8.948 19.048 8.14267 19.192 7.268 19.192ZM7.252 16.984C7.75333 16.984 8.212 16.8987 8.628 16.728C9.05467 16.5573 9.428 16.312 9.748 15.992C10.068 15.672 10.3133 15.2933 10.484 14.856C10.6653 14.4187 10.756 13.9333 10.756 13.4C10.756 12.8667 10.6653 12.3813 10.484 11.944C10.3133 11.5067 10.068 11.128 9.748 10.808C9.43867 10.488 9.07067 10.2427 8.644 10.072C8.21733 9.90133 7.75333 9.816 7.252 9.816C6.75067 9.816 6.28667 9.90133 5.86 10.072C5.444 10.2427 5.076 10.488 4.756 10.808C4.436 11.128 4.18533 11.5067 4.004 11.944C3.83333 12.3813 3.748 12.8667 3.748 13.4C3.748 13.9227 3.83333 14.408 4.004 14.856C4.18533 15.2933 4.43067 15.672 4.74 15.992C5.06 16.312 5.43333 16.5573 5.86 16.728C6.28667 16.8987 6.75067 16.984 7.252 16.984ZM20.24 19.128C19.5147 19.128 18.88 18.968 18.336 18.648C17.792 18.328 17.3653 17.8427 17.056 17.192C16.7573 16.5307 16.608 15.6987 16.608 14.696C16.608 13.6827 16.752 12.8507 17.04 12.2C17.328 11.5493 17.744 11.064 18.288 10.744C18.832 10.424 19.4827 10.264 20.24 10.264C21.0507 10.264 21.776 10.4507 22.416 10.824C23.0667 11.1867 23.5787 11.6987 23.952 12.36C24.336 13.0213 24.528 13.8 24.528 14.696C24.528 15.6027 24.336 16.3867 23.952 17.048C23.5787 17.7093 23.0667 18.2213 22.416 18.584C21.776 18.9467 21.0507 19.128 20.24 19.128ZM15.152 22.104V10.392H17.536V12.152L17.488 14.712L17.648 17.256V22.104H15.152ZM19.808 17.08C20.224 17.08 20.592 16.984 20.912 16.792C21.2427 16.6 21.504 16.328 21.696 15.976C21.8987 15.6133 22 15.1867 22 14.696C22 14.1947 21.8987 13.768 21.696 13.416C21.504 13.064 21.2427 12.792 20.912 12.6C20.592 12.408 20.224 12.312 19.808 12.312C19.392 12.312 19.0187 12.408 18.688 12.6C18.3573 12.792 18.096 13.064 17.904 13.416C17.712 13.768 17.616 14.1947 17.616 14.696C17.616 15.1867 17.712 15.6133 17.904 15.976C18.096 16.328 18.3573 16.6 18.688 16.792C19.0187 16.984 19.392 17.08 19.808 17.08ZM30.4709 19.128C29.4895 19.128 28.6255 18.936 27.8789 18.552C27.1429 18.168 26.5722 17.6453 26.1669 16.984C25.7615 16.312 25.5589 15.5493 25.5589 14.696C25.5589 13.832 25.7562 13.0693 26.1509 12.408C26.5562 11.736 27.1055 11.2133 27.7989 10.84C28.4922 10.456 29.2762 10.264 30.1509 10.264C30.9935 10.264 31.7509 10.4453 32.4229 10.808C33.1055 11.16 33.6442 11.672 34.0389 12.344C34.4335 13.0053 34.6309 13.8 34.6309 14.728C34.6309 14.824 34.6255 14.936 34.6149 15.064C34.6042 15.1813 34.5935 15.2933 34.5829 15.4H27.5909V13.944H33.2709L32.3109 14.376C32.3109 13.928 32.2202 13.5387 32.0389 13.208C31.8575 12.8773 31.6069 12.6213 31.2869 12.44C30.9669 12.248 30.5935 12.152 30.1669 12.152C29.7402 12.152 29.3615 12.248 29.0309 12.44C28.7109 12.6213 28.4602 12.8827 28.2789 13.224C28.0975 13.5547 28.0069 13.9493 28.0069 14.408V14.792C28.0069 15.2613 28.1082 15.6773 28.3109 16.04C28.5242 16.392 28.8175 16.664 29.1909 16.856C29.5749 17.0373 30.0229 17.128 30.5349 17.128C30.9935 17.128 31.3935 17.0587 31.7349 16.92C32.0869 16.7813 32.4069 16.5733 32.6949 16.296L34.0229 17.736C33.6282 18.184 33.1322 18.5307 32.5349 18.776C31.9375 19.0107 31.2495 19.128 30.4709 19.128ZM36.2926 19V10.392H38.6766V12.824L38.3406 12.12C38.5966 11.512 39.0073 11.0533 39.5726 10.744C40.138 10.424 40.826 10.264 41.6366 10.264V12.568C41.53 12.5573 41.434 12.552 41.3486 12.552C41.2633 12.5413 41.1726 12.536 41.0766 12.536C40.394 12.536 39.8393 12.7333 39.4126 13.128C38.9966 13.512 38.7886 14.1147 38.7886 14.936V19H36.2926ZM47.8383 19V17.32L47.6783 16.952V13.944C47.6783 13.4107 47.5129 12.9947 47.1823 12.696C46.8623 12.3973 46.3663 12.248 45.6943 12.248C45.2356 12.248 44.7823 12.3227 44.3343 12.472C43.8969 12.6107 43.5236 12.8027 43.2143 13.048L42.3183 11.304C42.7876 10.9733 43.3529 10.7173 44.0143 10.536C44.6756 10.3547 45.3476 10.264 46.0303 10.264C47.3423 10.264 48.3609 10.5733 49.0863 11.192C49.8116 11.8107 50.1743 12.776 50.1743 14.088V19H47.8383ZM45.2143 19.128C44.5423 19.128 43.9663 19.016 43.4863 18.792C43.0063 18.5573 42.6383 18.2427 42.3823 17.848C42.1263 17.4533 41.9983 17.0107 41.9983 16.52C41.9983 16.008 42.1209 15.56 42.3663 15.176C42.6223 14.792 43.0223 14.4933 43.5663 14.28C44.1103 14.056 44.8196 13.944 45.6943 13.944H47.9823V15.4H45.9663C45.3796 15.4 44.9743 15.496 44.7503 15.688C44.5369 15.88 44.4303 16.12 44.4303 16.408C44.4303 16.728 44.5529 16.984 44.7983 17.176C45.0543 17.3573 45.4009 17.448 45.8383 17.448C46.2543 17.448 46.6276 17.352 46.9583 17.16C47.2889 16.9573 47.5289 16.664 47.6783 16.28L48.0623 17.432C47.8809 17.9867 47.5503 18.408 47.0703 18.696C46.5903 18.984 45.9716 19.128 45.2143 19.128ZM55.9533 19.128C54.9399 19.128 54.1506 18.872 53.5853 18.36C53.0199 17.8373 52.7373 17.064 52.7373 16.04V8.488H55.2333V16.008C55.2333 16.3707 55.3293 16.6533 55.5213 16.856C55.7133 17.048 55.9746 17.144 56.3053 17.144C56.6999 17.144 57.0359 17.0373 57.3133 16.824L57.9853 18.584C57.7293 18.7653 57.4199 18.904 57.0573 19C56.7053 19.0853 56.3373 19.128 55.9533 19.128ZM51.4093 12.504V10.584H57.3773V12.504H51.4093ZM59.3864 19V10.392H61.8824V19H59.3864ZM60.6344 9.192C60.1757 9.192 59.8024 9.05867 59.5144 8.792C59.2264 8.52533 59.0824 8.19467 59.0824 7.8C59.0824 7.40533 59.2264 7.07467 59.5144 6.808C59.8024 6.54133 60.1757 6.408 60.6344 6.408C61.093 6.408 61.4664 6.536 61.7544 6.792C62.0424 7.03733 62.1864 7.35733 62.1864 7.752C62.1864 8.168 62.0424 8.51467 61.7544 8.792C61.477 9.05867 61.1037 9.192 60.6344 9.192ZM69.4309 10.264C70.1135 10.264 70.7215 10.4027 71.2549 10.68C71.7989 10.9467 72.2255 11.3627 72.5349 11.928C72.8442 12.4827 72.9989 13.1973 72.9989 14.072V19H70.5029V14.456C70.5029 13.7627 70.3482 13.2507 70.0389 12.92C69.7402 12.5893 69.3135 12.424 68.7589 12.424C68.3642 12.424 68.0069 12.5093 67.6869 12.68C67.3775 12.84 67.1322 13.0907 66.9509 13.432C66.7802 13.7733 66.6949 14.2107 66.6949 14.744V19H64.1989V10.392H66.5829V12.776L66.1349 12.056C66.4442 11.48 66.8869 11.0373 67.4629 10.728C68.0389 10.4187 68.6949 10.264 69.4309 10.264ZM79.3719 22.232C78.5612 22.232 77.7772 22.1307 77.0199 21.928C76.2732 21.736 75.6492 21.4427 75.1479 21.048L76.1399 19.256C76.5025 19.5547 76.9612 19.7893 77.5159 19.96C78.0812 20.1413 78.6359 20.232 79.1799 20.232C80.0652 20.232 80.7052 20.0347 81.0999 19.64C81.5052 19.2453 81.7079 18.6587 81.7079 17.88V16.584L81.8679 14.424L81.8359 12.248V10.392H84.2039V17.56C84.2039 19.16 83.7879 20.3387 82.9559 21.096C82.1239 21.8533 80.9292 22.232 79.3719 22.232ZM78.9879 18.584C78.1879 18.584 77.4625 18.4133 76.8119 18.072C76.1719 17.72 75.6545 17.2347 75.2599 16.616C74.8759 15.9867 74.6839 15.256 74.6839 14.424C74.6839 13.5813 74.8759 12.8507 75.2599 12.232C75.6545 11.6027 76.1719 11.1173 76.8119 10.776C77.4625 10.4347 78.1879 10.264 78.9879 10.264C79.7132 10.264 80.3532 10.4133 80.9079 10.712C81.4625 11 81.8945 11.4533 82.2039 12.072C82.5132 12.68 82.6679 13.464 82.6679 14.424C82.6679 15.3733 82.5132 16.1573 82.2039 16.776C81.8945 17.384 81.4625 17.8373 80.9079 18.136C80.3532 18.4347 79.7132 18.584 78.9879 18.584ZM79.4839 16.536C79.9212 16.536 80.3105 16.4507 80.6519 16.28C80.9932 16.0987 81.2599 15.848 81.4519 15.528C81.6439 15.208 81.7399 14.84 81.7399 14.424C81.7399 13.9973 81.6439 13.6293 81.4519 13.32C81.2599 13 80.9932 12.7547 80.6519 12.584C80.3105 12.4027 79.9212 12.312 79.4839 12.312C79.0465 12.312 78.6572 12.4027 78.3159 12.584C77.9745 12.7547 77.7025 13 77.4999 13.32C77.3079 13.6293 77.2119 13.9973 77.2119 14.424C77.2119 14.84 77.3079 15.208 77.4999 15.528C77.7025 15.848 77.9745 16.0987 78.3159 16.28C78.6572 16.4507 79.0465 16.536 79.4839 16.536ZM94.7543 19.192C93.9329 19.192 93.2023 19.0587 92.5623 18.792C91.9223 18.5253 91.4156 18.1627 91.0423 17.704C90.6689 17.2453 90.4823 16.7173 90.4823 16.12C90.4823 15.5653 90.6049 15.0693 90.8503 14.632C91.0956 14.184 91.4849 13.768 92.0182 13.384C92.5516 12.9893 93.2289 12.6053 94.0503 12.232C94.6476 11.9547 95.1169 11.7093 95.4583 11.496C95.7996 11.2827 96.0396 11.08 96.1783 10.888C96.3169 10.6853 96.3863 10.4827 96.3863 10.28C96.3863 10.0027 96.2903 9.77867 96.0983 9.608C95.9169 9.43733 95.6449 9.352 95.2823 9.352C94.8983 9.352 94.5996 9.448 94.3863 9.64C94.1729 9.832 94.0663 10.0773 94.0663 10.376C94.0663 10.536 94.0983 10.696 94.1623 10.856C94.2263 11.0053 94.3489 11.1813 94.5303 11.384C94.7116 11.576 94.9676 11.8267 95.2983 12.136L101.202 17.608L99.8423 19.192L93.3303 13.144C92.9569 12.8027 92.6583 12.4827 92.4343 12.184C92.2103 11.8853 92.0449 11.592 91.9383 11.304C91.8423 11.016 91.7943 10.7173 91.7943 10.408C91.7943 9.864 91.9383 9.384 92.2263 8.968C92.5143 8.552 92.9196 8.232 93.4423 8.008C93.9649 7.77333 94.5783 7.656 95.2823 7.656C95.9329 7.656 96.4929 7.76267 96.9623 7.976C97.4423 8.17867 97.8156 8.472 98.0823 8.856C98.3596 9.24 98.4983 9.69867 98.4983 10.232C98.4983 10.7013 98.3809 11.1333 98.1463 11.528C97.9116 11.912 97.5436 12.2747 97.0423 12.616C96.5516 12.9573 95.9063 13.304 95.1063 13.656C94.5623 13.9013 94.1303 14.1413 93.8103 14.376C93.5009 14.6 93.2769 14.8293 93.1383 15.064C92.9996 15.2987 92.9303 15.56 92.9303 15.848C92.9303 16.1147 93.0103 16.3547 93.1703 16.568C93.3409 16.7813 93.5756 16.9467 93.8743 17.064C94.1729 17.1813 94.5249 17.24 94.9303 17.24C95.5809 17.24 96.1783 17.0907 96.7223 16.792C97.2663 16.4827 97.7249 16.0293 98.0983 15.432C98.4823 14.824 98.7543 14.088 98.9143 13.224L100.914 13.848C100.69 14.936 100.29 15.88 99.7143 16.68C99.1383 17.48 98.4289 18.0987 97.5863 18.536C96.7436 18.9733 95.7996 19.192 94.7543 19.192ZM107.406 19V7.8H112.254C113.257 7.8 114.121 7.96533 114.846 8.296C115.571 8.616 116.131 9.08 116.526 9.688C116.921 10.296 117.118 11.0213 117.118 11.864C117.118 12.696 116.921 13.416 116.526 14.024C116.131 14.6213 115.571 15.08 114.846 15.4C114.121 15.72 113.257 15.88 112.254 15.88H108.846L109.998 14.744V19H107.406ZM114.526 19L111.726 14.936H114.494L117.326 19H114.526ZM109.998 15.032L108.846 13.816H112.11C112.91 13.816 113.507 13.6453 113.902 13.304C114.297 12.952 114.494 12.472 114.494 11.864C114.494 11.2453 114.297 10.7653 113.902 10.424C113.507 10.0827 112.91 9.912 112.11 9.912H108.846L109.998 8.68V15.032ZM123.268 19.128C122.286 19.128 121.422 18.936 120.676 18.552C119.94 18.168 119.369 17.6453 118.964 16.984C118.558 16.312 118.356 15.5493 118.356 14.696C118.356 13.832 118.553 13.0693 118.948 12.408C119.353 11.736 119.902 11.2133 120.596 10.84C121.289 10.456 122.073 10.264 122.948 10.264C123.79 10.264 124.548 10.4453 125.22 10.808C125.902 11.16 126.441 11.672 126.836 12.344C127.23 13.0053 127.428 13.8 127.428 14.728C127.428 14.824 127.422 14.936 127.412 15.064C127.401 15.1813 127.39 15.2933 127.38 15.4H120.388V13.944H126.068L125.108 14.376C125.108 13.928 125.017 13.5387 124.836 13.208C124.654 12.8773 124.404 12.6213 124.084 12.44C123.764 12.248 123.39 12.152 122.964 12.152C122.537 12.152 122.158 12.248 121.828 12.44C121.508 12.6213 121.257 12.8827 121.076 13.224C120.894 13.5547 120.804 13.9493 120.804 14.408V14.792C120.804 15.2613 120.905 15.6773 121.108 16.04C121.321 16.392 121.614 16.664 121.988 16.856C122.372 17.0373 122.82 17.128 123.332 17.128C123.79 17.128 124.19 17.0587 124.532 16.92C124.884 16.7813 125.204 16.5733 125.492 16.296L126.82 17.736C126.425 18.184 125.929 18.5307 125.332 18.776C124.734 19.0107 124.046 19.128 123.268 19.128ZM134.322 10.264C135.004 10.264 135.612 10.4027 136.146 10.68C136.69 10.9467 137.116 11.3627 137.426 11.928C137.735 12.4827 137.89 13.1973 137.89 14.072V19H135.394V14.456C135.394 13.7627 135.239 13.2507 134.93 12.92C134.631 12.5893 134.204 12.424 133.65 12.424C133.255 12.424 132.898 12.5093 132.578 12.68C132.268 12.84 132.023 13.0907 131.842 13.432C131.671 13.7733 131.586 14.2107 131.586 14.744V19H129.09V10.392H131.474V12.776L131.026 12.056C131.335 11.48 131.778 11.0373 132.354 10.728C132.93 10.4187 133.586 10.264 134.322 10.264ZM144.487 19.128C143.505 19.128 142.641 18.936 141.895 18.552C141.159 18.168 140.588 17.6453 140.183 16.984C139.777 16.312 139.575 15.5493 139.575 14.696C139.575 13.832 139.772 13.0693 140.167 12.408C140.572 11.736 141.121 11.2133 141.815 10.84C142.508 10.456 143.292 10.264 144.167 10.264C145.009 10.264 145.767 10.4453 146.439 10.808C147.121 11.16 147.66 11.672 148.055 12.344C148.449 13.0053 148.647 13.8 148.647 14.728C148.647 14.824 148.641 14.936 148.631 15.064C148.62 15.1813 148.609 15.2933 148.599 15.4H141.607V13.944H147.286L146.327 14.376C146.327 13.928 146.236 13.5387 146.055 13.208C145.873 12.8773 145.623 12.6213 145.303 12.44C144.983 12.248 144.609 12.152 144.183 12.152C143.756 12.152 143.377 12.248 143.047 12.44C142.727 12.6213 142.476 12.8827 142.295 13.224C142.113 13.5547 142.023 13.9493 142.023 14.408V14.792C142.023 15.2613 142.124 15.6773 142.327 16.04C142.54 16.392 142.833 16.664 143.207 16.856C143.591 17.0373 144.039 17.128 144.551 17.128C145.009 17.128 145.409 17.0587 145.751 16.92C146.103 16.7813 146.423 16.5733 146.711 16.296L148.039 17.736C147.644 18.184 147.148 18.5307 146.551 18.776C145.953 19.0107 145.265 19.128 144.487 19.128ZM152.12 19L149.016 10.392H151.368L153.944 17.8H152.824L155.512 10.392H157.624L160.232 17.8H159.112L161.768 10.392H163.976L160.856 19H158.44L156.152 12.648H156.888L154.52 19H152.12ZM165.136 19V10.392H167.632V19H165.136ZM166.384 9.192C165.926 9.192 165.552 9.05867 165.264 8.792C164.976 8.52533 164.832 8.19467 164.832 7.8C164.832 7.40533 164.976 7.07467 165.264 6.808C165.552 6.54133 165.926 6.408 166.384 6.408C166.843 6.408 167.216 6.536 167.504 6.792C167.792 7.03733 167.936 7.35733 167.936 7.752C167.936 8.168 167.792 8.51467 167.504 8.792C167.227 9.05867 166.854 9.192 166.384 9.192ZM175.181 10.264C175.864 10.264 176.472 10.4027 177.005 10.68C177.549 10.9467 177.976 11.3627 178.285 11.928C178.594 12.4827 178.749 13.1973 178.749 14.072V19H176.253V14.456C176.253 13.7627 176.098 13.2507 175.789 12.92C175.49 12.5893 175.064 12.424 174.509 12.424C174.114 12.424 173.757 12.5093 173.437 12.68C173.128 12.84 172.882 13.0907 172.701 13.432C172.53 13.7733 172.445 14.2107 172.445 14.744V19H169.949V10.392H172.333V12.776L171.885 12.056C172.194 11.48 172.637 11.0373 173.213 10.728C173.789 10.4187 174.445 10.264 175.181 10.264ZM185.122 22.232C184.311 22.232 183.527 22.1307 182.77 21.928C182.023 21.736 181.399 21.4427 180.898 21.048L181.89 19.256C182.253 19.5547 182.711 19.7893 183.266 19.96C183.831 20.1413 184.386 20.232 184.93 20.232C185.815 20.232 186.455 20.0347 186.85 19.64C187.255 19.2453 187.458 18.6587 187.458 17.88V16.584L187.618 14.424L187.586 12.248V10.392H189.954V17.56C189.954 19.16 189.538 20.3387 188.706 21.096C187.874 21.8533 186.679 22.232 185.122 22.232ZM184.738 18.584C183.938 18.584 183.213 18.4133 182.562 18.072C181.922 17.72 181.405 17.2347 181.01 16.616C180.626 15.9867 180.434 15.256 180.434 14.424C180.434 13.5813 180.626 12.8507 181.01 12.232C181.405 11.6027 181.922 11.1173 182.562 10.776C183.213 10.4347 183.938 10.264 184.738 10.264C185.463 10.264 186.103 10.4133 186.658 10.712C187.213 11 187.645 11.4533 187.954 12.072C188.263 12.68 188.418 13.464 188.418 14.424C188.418 15.3733 188.263 16.1573 187.954 16.776C187.645 17.384 187.213 17.8373 186.658 18.136C186.103 18.4347 185.463 18.584 184.738 18.584ZM185.234 16.536C185.671 16.536 186.061 16.4507 186.402 16.28C186.743 16.0987 187.01 15.848 187.202 15.528C187.394 15.208 187.49 14.84 187.49 14.424C187.49 13.9973 187.394 13.6293 187.202 13.32C187.01 13 186.743 12.7547 186.402 12.584C186.061 12.4027 185.671 12.312 185.234 12.312C184.797 12.312 184.407 12.4027 184.066 12.584C183.725 12.7547 183.453 13 183.25 13.32C183.058 13.6293 182.962 13.9973 182.962 14.424C182.962 14.84 183.058 15.208 183.25 15.528C183.453 15.848 183.725 16.0987 184.066 16.28C184.407 16.4507 184.797 16.536 185.234 16.536Z" fill="#025ADF"/>
<path d="M0.5 21H191.122V21.8H0.5V21Z" fill="#025ADF"/>
<mask id="mask0_672_10594" style="mask-type:alpha" maskUnits="userSpaceOnUse" x="195" y="1" width="25" height="25">
<rect x="195.5" y="1.5" width="24" height="24" fill="#D9D9D9"/>
</mask>
<g mask="url(#mask0_672_10594)">
<path d="M209.47 19.6912L207.878 18.0618L211.303 14.6374H199.332V12.3624H211.303L207.878 8.93794L209.47 7.30859L215.667 13.4999L209.47 19.6912Z" fill="#025ADF"/>
</g>
</svg>
