<svg width="44" height="16" viewBox="0 0 44 16" fill="none" xmlns="http://www.w3.org/2000/svg">
<path fill-rule="evenodd" clip-rule="evenodd" d="M0.455067 1.74176L0 2.22166V8.57172V14.9218L0.368639 15.3695L0.737278 15.8174H2.61892H4.50056L4.95562 15.3373L5.41069 14.8574V13.1193V11.3814L7.58379 13.5994L9.75675 15.8174H11.6152C13.4654 15.8174 13.4752 15.8156 13.8561 15.4091L14.2387 15.001V11.2989V7.59678L16.5168 9.92234L18.795 12.2479V13.6415C18.795 14.9784 18.8113 15.051 19.1944 15.4263C19.5856 15.8094 19.6313 15.8174 21.4292 15.8174C23.2271 15.8174 23.2728 15.8094 23.6639 15.4263C24.0467 15.0515 24.0633 14.9774 24.0633 13.6522V12.2693L26.3404 9.93136L28.6173 7.59343L28.6186 10.3619L28.6197 13.1304L29.9395 14.4739L31.2593 15.8174H35.8101H40.3609L41.6096 14.5468L42.8584 13.2763V11.8085C42.8584 10.3903 42.8448 10.3274 42.459 9.94956C42.0604 9.55918 42.0553 9.55845 39.8344 9.55845H37.609L37.5639 9.95873L37.5189 10.359L35.7034 10.3998L33.888 10.4405V8.6167V6.79287H35.739H37.5901V7.22954V7.66621H39.7354C41.8302 7.66621 41.8921 7.65719 42.3695 7.285L42.8584 6.90393V5.42639V3.94869L41.5386 2.60521L40.2188 1.26172H35.739H31.2593L29.9395 2.60521L28.6197 3.94869V3.07041C28.6197 2.2681 28.5791 2.15194 28.1501 1.72692L27.6807 1.26172H25.9H24.1191L23.6641 1.74176C23.2553 2.1729 23.209 2.31031 23.209 3.09224V3.96296L22.3151 4.86861L21.4212 5.77427L20.5353 4.86046L19.6493 3.94666V3.06939C19.6493 2.26824 19.6086 2.1518 19.1798 1.72692L18.7103 1.26172H16.9282H15.1462L14.736 1.69955L14.3257 2.13724L13.8838 1.69955L13.442 1.26172L11.6689 1.26594C9.9064 1.27016 9.89316 1.27278 9.43311 1.70057L8.97035 2.13098V3.98712V5.84341L6.7262 3.55249L4.4819 1.26172H2.69609H0.910135L0.455067 1.74176Z" fill="white"/>
<path d="M42.9395 2.12615C42.8019 2.12615 42.6743 2.10138 42.5569 2.05184C42.4395 2.0023 42.3367 1.9335 42.2487 1.84543C42.1606 1.75552 42.0918 1.65186 42.0423 1.53443C41.9946 1.417 41.9707 1.2904 41.9707 1.15463C41.9707 1.01885 41.9955 0.892254 42.045 0.774827C42.0946 0.6574 42.1634 0.554651 42.2514 0.466581C42.3395 0.376676 42.4422 0.306954 42.5597 0.257415C42.6789 0.207875 42.8074 0.183105 42.945 0.183105C43.0826 0.183105 43.2101 0.207875 43.3275 0.257415C43.4468 0.305119 43.5495 0.373007 43.6358 0.461077C43.7238 0.549147 43.7917 0.651896 43.8394 0.769322C43.889 0.884914 43.9138 1.01152 43.9138 1.14912C43.9138 1.28673 43.889 1.41517 43.8394 1.53443C43.7899 1.65186 43.7202 1.75552 43.6303 1.84543C43.5422 1.9335 43.4395 2.0023 43.322 2.05184C43.2046 2.10138 43.0771 2.12615 42.9395 2.12615ZM43.2312 1.69681L42.9615 1.28123H43.1982L43.4679 1.69681H43.2312ZM42.9367 1.97478C43.0541 1.97478 43.1624 1.95368 43.2615 1.91148C43.3606 1.86928 43.4468 1.81149 43.5202 1.73809C43.5954 1.66287 43.6532 1.5748 43.6936 1.47388C43.7339 1.37297 43.7541 1.26472 43.7541 1.14912C43.7541 1.03353 43.7339 0.926197 43.6936 0.827118C43.6532 0.72804 43.5963 0.641804 43.5229 0.568412C43.4514 0.495021 43.3661 0.438142 43.267 0.397776C43.1697 0.355576 43.0624 0.334476 42.945 0.334476C42.8276 0.334476 42.7184 0.355576 42.6175 0.397776C42.5184 0.438142 42.4322 0.495938 42.3588 0.571164C42.2872 0.646391 42.2303 0.733544 42.1881 0.832623C42.1478 0.931702 42.1276 1.03904 42.1276 1.15463C42.1276 1.27022 42.1478 1.37756 42.1881 1.47664C42.2285 1.57571 42.2854 1.66287 42.3588 1.73809C42.4322 1.81332 42.5184 1.87203 42.6175 1.91423C42.7165 1.9546 42.823 1.97478 42.9367 1.97478ZM42.5349 1.69681V0.612447H42.9863C43.1294 0.612447 43.2413 0.646391 43.322 0.714278C43.4028 0.782166 43.4431 0.873906 43.4431 0.989498C43.4431 1.10876 43.4028 1.20142 43.322 1.26747C43.2413 1.33352 43.1294 1.36655 42.9863 1.36655H42.7716V1.69681H42.5349ZM42.7688 1.18215H42.9725C43.0496 1.18215 43.1092 1.16564 43.1514 1.13261C43.1936 1.09775 43.2147 1.05005 43.2147 0.989498C43.2147 0.92895 43.1936 0.882162 43.1514 0.849136C43.1092 0.81611 43.0496 0.799596 42.9725 0.799596H42.7688V1.18215Z" fill="white"/>
</svg>
