<svg width="176" height="60" viewBox="0 0 176 60" fill="none" xmlns="http://www.w3.org/2000/svg">
<path fill-rule="evenodd" clip-rule="evenodd" d="M1.86284 2.38071L0 4.34521V30.3395V56.3338L1.50904 58.1666L3.01808 60H10.7207H18.4233L20.2861 58.0349L22.1489 56.0704V48.9554V41.8411L31.0447 50.9205L39.9398 60H47.5474C55.1211 60 55.1614 59.9929 56.7205 58.3287L58.2867 56.6579V41.5032V26.3485L67.6126 35.8683L76.9384 45.3881V51.0927C76.9384 56.5656 77.0049 56.8629 78.5734 58.399C80.1745 59.9672 80.3616 60 87.7215 60C95.0813 60 95.2684 59.9672 96.8696 58.399C98.4363 56.8647 98.5045 56.5614 98.5045 51.1368V45.4757L107.826 35.9053L117.146 26.3348L117.152 37.6678L117.156 49.0007L122.559 54.5004L127.961 60H146.59H165.219L170.331 54.7989L175.443 49.5978V43.5893C175.443 37.784 175.388 37.5266 173.808 35.9798C172.177 34.3817 172.156 34.3787 163.064 34.3787H153.954L153.77 36.0173L153.585 37.6559L146.154 37.8227L138.722 37.9895V30.5236V23.0577H146.3H153.877V24.8452V26.6328H162.659C171.234 26.6328 171.488 26.5958 173.442 25.0722L175.443 23.5123V17.4639V11.4149L170.04 5.91526L164.638 0.415619H146.3H127.961L122.559 5.91526L117.156 11.4149V7.81958C117.156 4.53528 116.99 4.0598 115.234 2.31994L113.312 0.415619H106.023H98.733L96.8702 2.38071C95.1967 4.1456 95.0073 4.70808 95.0073 7.90895V11.4733L91.3481 15.1806L87.6888 18.888L84.0622 15.1473L80.4356 11.4066V7.8154C80.4356 4.53588 80.2689 4.0592 78.5133 2.31994L76.5916 0.415619H69.2965H62.0019L60.3226 2.20792L58.6428 3.99962L56.8342 2.20792L55.0256 0.415619L47.7671 0.432899C40.5524 0.450178 40.4982 0.460903 38.6149 2.21209L36.7206 3.974V11.5722V19.171L27.5341 9.79301L18.3469 0.415619H11.0366H3.72569L1.86284 2.38071Z" fill="#0042A7"/>
</svg>
