<svg width="103" height="37" viewBox="0 0 103 37" fill="none" xmlns="http://www.w3.org/2000/svg">
<path fill-rule="evenodd" clip-rule="evenodd" d="M1.06736 3.65719L0 4.7828V19.6768V34.5708L0.86464 35.621L1.72928 36.6715H6.14265H10.556L11.6234 35.5455L12.6907 34.4199V30.3432V26.2669L17.7877 31.4692L22.8844 36.6715H27.2433C31.5829 36.6715 31.606 36.6674 32.4993 35.7138L33.3967 34.7565V26.0733V17.3901L38.7401 22.8447L44.0836 28.2993V31.5679C44.0836 34.7036 44.1217 34.874 45.0204 35.7541C45.9378 36.6527 46.045 36.6715 50.262 36.6715C54.479 36.6715 54.5862 36.6527 55.5036 35.7541C56.4013 34.875 56.4404 34.7012 56.4404 31.5931V28.3495L61.7812 22.8658L67.1217 17.3822L67.1247 23.8757L67.1273 30.3692L70.2229 33.5203L73.3184 36.6715H83.9923H94.6662L97.5951 33.6914L100.524 30.7113V27.2686C100.524 23.9423 100.492 23.7948 99.5872 22.9085C98.6525 21.9929 98.6404 21.9912 93.4312 21.9912H88.2116L88.1058 22.93L88.0003 23.8689L83.7422 23.9645L79.4841 24.0601V19.7823V15.5045H83.8257H88.1672V16.5287V17.5529H93.1991C98.1124 17.5529 98.2577 17.5318 99.3775 16.6588L100.524 15.765V12.2994V8.83353L97.4285 5.68239L94.3329 2.53125H83.8257H73.3184L70.2229 5.68239L67.1273 8.83353V6.77351C67.1273 4.89171 67.0321 4.61927 66.0259 3.62237L64.9248 2.53125H60.7482H56.5713L55.5039 3.65719C54.5451 4.66843 54.4366 4.99071 54.4366 6.82472V8.86699L52.3399 10.9912L50.2433 13.1154L48.1654 10.9721L46.0874 8.82875V6.77112C46.0874 4.89205 45.9919 4.61892 44.986 3.62237L43.8849 2.53125H39.705H35.5254L34.5632 3.55819L33.6007 4.58478L32.5644 3.55819L31.5281 2.53125L27.3692 2.54115C23.2354 2.55105 23.2043 2.5572 22.1253 3.56058L21.0399 4.5701V8.92366V13.2776L15.7763 7.90424L10.5123 2.53125H6.32366H2.13472L1.06736 3.65719Z" fill="#080707"/>
<path d="M100.716 4.55838C100.393 4.55838 100.094 4.50028 99.8183 4.38409C99.5429 4.2679 99.3019 4.10651 99.0953 3.89995C98.8888 3.68908 98.7274 3.44593 98.6112 3.1705C98.4993 2.89508 98.4434 2.59814 98.4434 2.27968C98.4434 1.96122 98.5015 1.66428 98.6177 1.38885C98.7338 1.11343 98.8952 0.872435 99.1018 0.665867C99.3084 0.454996 99.5494 0.291462 99.8248 0.175268C100.105 0.0590737 100.406 0.000976562 100.729 0.000976562C101.051 0.000976562 101.35 0.0590737 101.626 0.175268C101.906 0.287159 102.147 0.446389 102.349 0.652956C102.555 0.859524 102.715 1.10052 102.826 1.37594C102.943 1.64707 103.001 1.94401 103.001 2.26677C103.001 2.58953 102.943 2.89078 102.826 3.1705C102.71 3.44593 102.547 3.68908 102.336 3.89995C102.129 4.10651 101.888 4.2679 101.613 4.38409C101.337 4.50028 101.038 4.55838 100.716 4.55838ZM101.4 3.55136L100.767 2.57662H101.322L101.955 3.55136H101.4ZM100.709 4.20334C100.985 4.20334 101.238 4.15385 101.471 4.05487C101.703 3.95589 101.906 3.82033 102.078 3.64819C102.254 3.47175 102.39 3.26518 102.484 3.02849C102.579 2.7918 102.626 2.53789 102.626 2.26677C102.626 1.99565 102.579 1.74389 102.484 1.5115C102.39 1.27912 102.256 1.07685 102.084 0.904711C101.916 0.732571 101.716 0.599163 101.484 0.504486C101.256 0.405506 101.004 0.356015 100.729 0.356015C100.453 0.356015 100.197 0.405506 99.9603 0.504486C99.728 0.599163 99.5257 0.734723 99.3535 0.911166C99.1857 1.08761 99.0523 1.29203 98.9533 1.52442C98.8586 1.7568 98.8113 2.00856 98.8113 2.27968C98.8113 2.5508 98.8586 2.80255 98.9533 3.03494C99.048 3.26733 99.1814 3.47175 99.3535 3.64819C99.5257 3.82464 99.728 3.96235 99.9603 4.06133C100.193 4.15601 100.442 4.20334 100.709 4.20334ZM99.7667 3.55136V1.008H100.825C101.161 1.008 101.424 1.08761 101.613 1.24684C101.802 1.40607 101.897 1.62124 101.897 1.89236C101.897 2.17209 101.802 2.38942 101.613 2.54434C101.424 2.69927 101.161 2.77673 100.825 2.77673H100.322V3.55136H99.7667ZM100.315 2.34423H100.793C100.974 2.34423 101.114 2.3055 101.213 2.22804C101.312 2.14627 101.361 2.03438 101.361 1.89236C101.361 1.75035 101.312 1.64061 101.213 1.56315C101.114 1.48568 100.974 1.44695 100.793 1.44695H100.315V2.34423Z" fill="#080707"/>
</svg>
