<svg width="21" height="20" viewBox="0 0 21 20" fill="none" xmlns="http://www.w3.org/2000/svg">
<path d="M7.5 10.5H8.5V8.5H9.5C9.78333 8.5 10.0208 8.40417 10.2125 8.2125C10.4042 8.02083 10.5 7.78333 10.5 7.5V6.5C10.5 6.21667 10.4042 5.97917 10.2125 5.7875C10.0208 5.59583 9.78333 5.5 9.5 5.5H7.5V10.5ZM8.5 7.5V6.5H9.5V7.5H8.5ZM11.5 10.5H13.5C13.7833 10.5 14.0208 10.4042 14.2125 10.2125C14.4042 10.0208 14.5 9.78333 14.5 9.5V6.5C14.5 6.21667 14.4042 5.97917 14.2125 5.7875C14.0208 5.59583 13.7833 5.5 13.5 5.5H11.5V10.5ZM12.5 9.5V6.5H13.5V9.5H12.5ZM15.5 10.5H16.5V8.5H17.5V7.5H16.5V6.5H17.5V5.5H15.5V10.5ZM6.5 16C5.95 16 5.47917 15.8042 5.0875 15.4125C4.69583 15.0208 4.5 14.55 4.5 14V2C4.5 1.45 4.69583 0.979167 5.0875 0.5875C5.47917 0.195833 5.95 0 6.5 0H18.5C19.05 0 19.5208 0.195833 19.9125 0.5875C20.3042 0.979167 20.5 1.45 20.5 2V14C20.5 14.55 20.3042 15.0208 19.9125 15.4125C19.5208 15.8042 19.05 16 18.5 16H6.5ZM6.5 14H18.5V2H6.5V14ZM2.5 20C1.95 20 1.47917 19.8042 1.0875 19.4125C0.695833 19.0208 0.5 18.55 0.5 18V4H2.5V18H16.5V20H2.5Z" fill="#025ADF"/>
</svg>
